# Blender 3.3.11
# www.blender.org
mtllib DIR_OBJ_X.mtl
o X
v 1.700000 0.020000 -0.020000
v 1.700000 -0.020000 -0.020000
v 1.700000 -0.020000 0.020000
v 1.700000 0.020000 0.020000
v -0.000000 0.020000 -0.020000
v -0.000000 -0.020000 -0.020000
v -0.000000 -0.020000 0.020000
v -0.000000 0.020000 0.020000
v 2.000000 0.000000 0.000000
v 1.700000 0.200000 -0.200000
v 1.700000 -0.200000 -0.200000
v 1.700000 -0.200000 0.200000
v 1.700000 0.200000 0.200000
vn -0.0000 1.0000 -0.0000
vn -0.0000 -0.0000 1.0000
vn -0.0000 -1.0000 -0.0000
vn -0.0000 -0.0000 -1.0000
vn -1.0000 -0.0000 -0.0000
vn 1.0000 -0.0000 -0.0000
vn 0.5547 0.8321 -0.0000
vn 0.5547 -0.0000 -0.8321
vn 0.5547 -0.8321 -0.0000
vn 0.5547 -0.0000 0.8320
vt 0.500000 0.500000
vt 0.424183 0.000000
vt 0.000000 0.235294
vt 0.424183 0.500000
vt 0.424183 0.264706
vt 0.000000 0.735294
vt 0.848365 0.500000
vt 0.500000 0.500000
vt 0.500000 0.500000
vt 0.424183 0.000000
vt 0.000000 0.235294
vt 0.424183 0.500000
vt 0.424183 0.264706
vt 0.000000 0.735294
vt 0.848365 0.500000
vt 0.500000 0.500000
vt 0.500000 0.500000
vt 0.424183 0.500000
vt 0.424183 1.000000
vt 0.848365 0.000000
vt 0.500000 0.500000
vt 0.424183 0.000000
vt 0.000000 0.235294
vt 0.424183 0.500000
vt 0.424183 0.264706
vt 0.000000 0.735294
vt 0.848365 0.500000
vt 0.500000 0.500000
s 0
f 4/8/1 1/1/1 5/9/1 8/16/1
f 3/5/2 4/7/2 8/15/2 7/13/2
f 2/4/3 3/6/3 7/14/3 6/12/3
f 1/2/4 2/3/4 6/11/4 5/10/4
f 7/14/5 8/16/5 5/10/5 6/12/5
f 3/6/6 2/4/6 1/2/6 4/8/6
f 10/21/7 13/28/7 9/17/7
f 9/18/8 11/23/8 10/22/8
f 9/19/9 12/26/9 11/24/9
f 9/20/10 13/27/10 12/25/10
f 12/26/5 13/28/5 10/22/5 11/24/5
